<svg version="1.1" id="Layer_1" xmlns="http://www.w3.org/2000/svg" xmlns:xlink="http://www.w3.org/1999/xlink" x="0px" y="0px"
	 width="100%" viewBox="0 0 500 500" enable-background="new 0 0 500 500" xml:space="preserve">
<path fill="#FFFDF5" opacity="1.000000" stroke="none" 
	d="
M322.000000,501.000000 
	C214.666687,501.000000 107.833382,501.000000 1.000057,501.000000 
	C1.000038,334.333405 1.000038,167.666794 1.000019,1.000147 
	C167.666565,1.000098 334.333130,1.000098 500.999756,1.000049 
	C500.999847,167.666519 500.999847,334.333038 500.999939,500.999786 
	C441.500000,501.000000 382.000000,501.000000 322.000000,501.000000 
M186.678101,386.157562 
	C204.196365,394.721191 222.753738,399.283356 242.168625,400.454041 
	C271.239777,402.206909 298.467010,395.798218 324.761292,381.577606 
	C336.667572,381.053986 348.571167,380.451263 360.481354,380.040863 
	C366.229462,379.842804 371.990082,380.006683 377.405182,380.006683 
	C377.405182,367.594971 377.345734,356.516113 377.431763,345.438354 
	C377.471191,340.357788 377.796539,335.279480 378.914307,330.059448 
	C382.834534,330.059448 386.754761,330.059448 391.176208,330.059448 
	C391.176208,320.369995 391.176208,311.559296 391.651062,302.281586 
	C394.425446,290.673889 398.525024,279.202942 399.739502,267.434265 
	C404.417450,222.103271 391.638641,181.828506 360.141479,148.790756 
	C320.992981,107.727440 272.693512,93.160576 217.289276,105.262154 
	C175.513535,114.386948 143.868881,138.498978 121.923515,175.185577 
	C107.931831,198.575790 101.114044,224.087082 101.169342,251.240143 
	C101.205345,268.920837 103.666885,286.352478 110.895859,303.761932 
	C110.895859,312.329712 110.895859,320.897491 110.895859,330.166565 
	C115.704674,330.166565 119.805443,330.166565 123.784378,330.848572 
	C124.224602,349.534668 124.664825,368.220764 125.108543,387.055420 
	C127.609360,387.055420 129.430984,387.090118 131.250961,387.050049 
	C149.518539,386.647736 167.785843,386.233215 186.678101,386.157562 
z"/>
<path fill="#3F7772" opacity="1.000000" stroke="none" 
	d="
M110.831314,302.797577 
	C103.666885,286.352478 101.205345,268.920837 101.169342,251.240143 
	C101.114044,224.087082 107.931831,198.575790 121.923515,175.185577 
	C143.868881,138.498978 175.513535,114.386948 217.289276,105.262154 
	C272.693512,93.160576 320.992981,107.727440 360.141479,148.790756 
	C391.638641,181.828506 404.417450,222.103271 399.739502,267.434265 
	C398.525024,279.202942 394.425446,290.673889 391.400879,302.064941 
	C391.150665,290.312744 391.150665,278.777161 391.150665,266.866302 
	C368.872894,266.866302 347.477814,266.866302 326.232910,266.570007 
	C333.926300,259.421051 332.421722,242.801453 322.927002,238.526962 
	C324.902405,237.092545 326.658142,235.931351 328.572968,234.664963 
	C322.509369,226.986130 314.541656,226.155060 306.168396,226.654419 
	C306.388763,224.602448 307.073029,222.574844 306.430206,221.142944 
	C303.652161,214.954529 300.454834,208.955460 297.484894,202.851135 
	C296.835358,201.516129 296.492706,200.031815 295.735901,197.818161 
	C298.972290,198.591858 301.149353,199.112320 303.970703,199.786789 
	C303.970703,194.971130 304.100342,190.550537 303.873993,186.148239 
	C303.821411,185.125214 302.600952,183.344360 301.842041,183.302979 
	C294.833252,182.920944 287.513733,181.594971 281.606812,187.875793 
	C274.394379,187.854218 270.170929,184.548309 268.034332,178.043213 
	C267.171967,175.417664 265.599670,172.917633 263.914368,170.690430 
	C259.014893,164.215454 252.090469,164.002975 247.250229,170.446365 
	C241.651733,177.899170 238.866196,186.543365 237.922058,196.201965 
	C235.919907,202.542480 237.740448,207.506989 241.476212,211.886993 
	C236.412354,211.925522 231.803665,211.898361 227.177475,211.411163 
	C227.159973,198.394623 227.159973,185.838104 227.159973,173.351196 
	C213.352768,173.351196 200.311615,173.351196 187.387421,173.351196 
	C187.387421,186.403625 187.387421,199.104218 187.387421,212.076691 
	C194.246933,212.076691 200.723175,212.076691 207.239258,212.521561 
	C207.279114,215.832672 207.279114,218.698898 207.279114,221.776611 
	C210.264923,221.917480 212.658875,222.030441 215.003372,222.502304 
	C214.310852,224.680313 213.667801,226.499420 212.771118,228.521301 
	C207.829575,232.406799 203.141678,236.089508 198.036560,239.854187 
	C190.085449,239.936172 182.551544,239.936172 175.017654,239.936172 
	C175.028152,240.646042 175.038651,241.355911 175.049164,242.065781 
	C182.102036,242.065781 189.154922,242.065781 196.185516,242.403580 
	C195.765503,243.789764 195.367798,244.838135 194.503082,245.931244 
	C183.211227,246.009567 172.386383,246.043167 161.561523,246.076782 
	C161.582474,246.753723 161.603409,247.430664 161.624344,248.107605 
	C172.418442,248.107605 183.212540,248.107605 194.011673,248.539078 
	C194.016708,250.504837 194.016708,252.039124 194.016708,253.669312 
	C196.759766,253.821686 198.871216,253.938980 200.995499,254.449905 
	C202.668015,258.845581 204.327682,262.847656 205.522949,266.909607 
	C173.854752,266.969513 142.650955,266.969513 110.831314,266.969513 
	C110.831314,279.281372 110.831314,291.039490 110.831314,302.797577 
M249.043335,152.817505 
	C251.113297,159.841873 255.943222,163.495483 261.856415,162.510010 
	C268.171326,161.457581 271.342773,156.769562 271.580170,148.386795 
	C273.502167,148.001740 275.424164,147.616699 277.346161,147.231644 
	C277.431946,146.634720 277.517731,146.037781 277.603516,145.440857 
	C273.021484,148.424759 270.554260,146.302917 268.026398,143.176529 
	C264.303375,138.571976 258.876190,140.344467 254.698792,141.585419 
	C250.444687,142.849182 248.319305,147.151123 249.043335,152.817505 
M179.476669,233.926132 
	C183.513321,233.810898 187.549973,233.695663 191.586624,233.580429 
	C186.690765,230.464005 145.836319,230.839340 143.040405,233.926086 
	C154.854675,233.926086 166.668945,233.926086 179.476669,233.926132 
M169.484833,203.926117 
	C173.834045,203.813324 178.183258,203.700516 182.532471,203.587708 
	C182.484100,203.148956 182.435730,202.710205 182.387360,202.271454 
	C167.026993,202.271454 151.666641,202.271454 136.306274,202.271454 
	C136.295288,202.822998 136.284302,203.374542 136.273315,203.926086 
	C147.012512,203.926086 157.751724,203.926086 169.484833,203.926117 
M199.992691,225.191513 
	C200.536926,224.932663 201.081146,224.673813 201.625381,224.414963 
	C200.716705,223.969788 199.811783,223.146927 198.898773,223.137848 
	C189.741302,223.046753 180.582260,223.063721 171.424438,223.141098 
	C170.657333,223.147583 169.895813,223.813736 169.131699,224.173416 
	C169.190353,224.519928 169.249008,224.866425 169.307663,225.212936 
	C179.234299,225.212936 189.160919,225.212936 199.992691,225.191513 
M152.907593,192.786453 
	C151.765472,192.977890 150.623337,193.169342 148.607300,193.507278 
	C154.399979,195.721603 178.016327,195.323227 181.444946,192.785843 
	C171.710770,192.785843 162.764313,192.785843 152.907593,192.786453 
z"/>
<path fill="#FDE078" opacity="1.000000" stroke="none" 
	d="
M326.082733,266.866302 
	C347.477814,266.866302 368.872894,266.866302 391.150665,266.866302 
	C391.150665,278.777161 391.150665,290.312744 391.163452,302.298462 
	C391.176208,311.559296 391.176208,320.369995 391.176208,330.059448 
	C386.754761,330.059448 382.834534,330.059448 378.117859,329.862823 
	C377.099976,327.564453 376.878571,325.462708 376.701630,323.782776 
	C367.105560,323.782776 357.824524,323.561401 348.557159,323.822662 
	C315.775513,324.746887 282.999847,325.881378 250.219330,326.848907 
	C222.760651,327.659393 195.298691,328.360352 167.837555,329.085602 
	C153.194473,329.472321 138.550049,329.807892 123.906219,330.166565 
	C119.805443,330.166565 115.704674,330.166565 110.895859,330.166565 
	C110.895859,320.897491 110.895859,312.329712 110.863586,303.279755 
	C110.831314,291.039490 110.831314,279.281372 110.831314,266.969513 
	C142.650955,266.969513 173.854752,266.969513 205.843903,267.055573 
	C215.477982,274.384033 224.234131,272.930756 233.414093,266.915619 
	C255.908005,266.931915 277.928955,266.894135 300.267700,267.015045 
	C309.657898,273.895966 316.793793,273.809937 326.082733,266.866302 
M302.129211,311.966797 
	C305.017822,311.966797 307.906433,311.966797 311.276733,311.966797 
	C310.314972,308.763336 309.071198,306.399780 309.043030,304.021820 
	C309.015320,301.682312 310.410950,299.363037 310.848572,296.973816 
	C312.071808,290.295441 309.762970,284.590057 305.270172,284.256226 
	C299.050751,283.794037 292.771240,284.140198 286.421387,284.140198 
	C286.421387,293.714905 286.421387,302.622803 286.421387,311.638855 
	C290.100952,311.638855 293.470551,311.638855 296.767212,311.638855 
	C297.061188,309.606964 297.301025,307.949249 297.668854,305.406982 
	C299.235382,308.156769 300.271851,309.976105 302.129211,311.966797 
M152.257950,311.150452 
	C159.068909,308.023315 160.709061,304.730865 159.894455,295.820892 
	C159.328552,289.631287 156.438568,285.276215 151.149445,284.594116 
	C146.007889,283.931061 140.713882,284.450134 135.420471,284.450134 
	C135.420471,293.696228 135.420471,302.577148 135.420471,312.215363 
	C141.020004,311.938446 146.245926,311.679993 152.257950,311.150452 
M185.059387,304.240234 
	C181.517975,304.240234 177.976547,304.240234 174.435135,304.240234 
	C174.439011,303.508636 174.442902,302.777039 174.446777,302.045441 
	C178.450012,301.867859 182.453232,301.690308 186.476532,301.511841 
	C186.476532,299.463593 186.476532,297.765900 186.476532,296.204773 
	C182.079849,295.783661 178.114349,295.403870 174.148865,295.024048 
	C174.206192,294.405884 174.263535,293.787720 174.320862,293.169586 
	C178.350647,292.936523 182.380432,292.703491 186.488739,292.465912 
	C186.488739,289.557861 186.488739,287.004059 186.488739,284.500488 
	C178.264679,284.500488 170.388321,284.500488 162.415100,284.500488 
	C162.415100,293.838501 162.415100,302.743805 162.415100,311.729858 
	C170.689651,311.729858 178.608017,311.729858 187.331192,311.729858 
	C186.812881,309.028778 186.370605,306.723969 185.059387,304.240234 
M366.734192,301.887573 
	C364.618866,301.274414 362.525604,300.565063 360.382233,300.074493 
	C358.113403,299.555176 355.796936,299.244019 353.501282,298.841949 
	C353.545105,298.083893 353.588928,297.325836 353.632751,296.567780 
	C357.882660,296.240417 362.132568,295.913025 366.282471,295.593353 
	C367.852509,284.064972 367.852509,284.064606 357.128540,284.080200 
	C355.964905,284.081879 354.800476,284.063812 353.637787,284.100067 
	C345.272980,284.360931 342.038116,287.665894 341.896332,296.098785 
	C341.871185,297.594360 341.861389,299.092133 341.910889,300.586700 
	C342.104553,306.440369 344.675537,310.318298 350.348145,311.282745 
	C355.609924,312.177338 361.070648,311.901550 366.754425,312.154968 
	C366.754425,308.401978 366.754425,305.598633 366.734192,301.887573 
M235.491928,309.945709 
	C235.941177,310.585449 236.377792,311.771118 236.841583,311.781860 
	C242.405029,311.910522 247.972488,311.864960 253.464401,311.864960 
	C254.710709,302.327759 255.865219,293.493103 257.049500,284.430542 
	C253.144730,284.430542 249.757584,284.430542 246.440201,284.430542 
	C245.819031,287.656799 245.265198,290.533325 244.711365,293.409851 
	C244.501434,293.386139 244.291504,293.362427 244.081573,293.338715 
	C243.585129,290.431580 243.088699,287.524475 242.567978,284.475159 
	C239.076614,284.475159 235.725876,284.475159 232.102463,284.475159 
	C233.193604,292.960327 234.230316,301.022095 235.491928,309.945709 
M332.008301,284.096985 
	C327.426422,284.096985 322.844513,284.096985 318.159515,284.096985 
	C316.487823,293.643677 314.925018,302.568695 313.334747,311.650543 
	C317.114532,311.650543 320.475250,311.650543 323.485931,311.650543 
	C324.174774,309.185852 324.741364,307.158539 325.307983,305.131256 
	C325.678497,305.185577 326.049042,305.239929 326.419586,305.294250 
	C326.939240,307.449524 327.458923,309.604767 327.964264,311.700623 
	C331.813263,311.700623 335.390930,311.700623 339.420166,311.700623 
	C338.000244,305.021179 336.724670,298.707245 335.292877,292.428925 
	C334.656982,289.640533 333.705719,286.924042 332.008301,284.096985 
M214.180496,305.559937 
	C214.702225,302.283081 212.996414,301.748596 210.144455,301.845306 
	C201.751541,302.130005 202.825592,302.441528 202.851288,294.379120 
	C202.861710,291.111145 202.853012,287.843140 202.853012,284.377625 
	C197.993561,284.377625 193.950348,284.377625 189.706085,284.377625 
	C189.706085,293.695984 189.706085,302.706696 189.706085,311.700897 
	C197.999939,311.700897 205.896530,311.700897 214.180862,311.700897 
	C214.180862,309.764008 214.180862,308.136688 214.180496,305.559937 
M272.486450,284.082031 
	C268.066101,284.082031 263.645721,284.082031 259.364075,284.082031 
	C259.364075,288.200989 259.364075,291.480591 259.364075,295.024780 
	C264.612915,294.465363 265.530853,297.263092 265.197418,301.442444 
	C264.925873,304.845642 265.142212,308.287781 265.142212,311.737427 
	C269.735352,311.737427 273.666687,311.737427 278.119354,311.737427 
	C278.119354,308.364532 278.294189,305.229065 278.076630,302.121063 
	C277.782043,297.911987 278.123749,294.385529 283.642578,294.783112 
	C283.642578,291.112091 283.642578,287.856903 283.642578,284.082092 
	C280.056061,284.082092 276.764587,284.082092 272.486450,284.082031 
M226.895905,284.088013 
	C223.644714,284.088013 220.393509,284.088013 217.087341,284.088013 
	C217.087341,293.699615 217.087341,302.586090 217.087341,311.684326 
	C221.414810,311.684326 225.444855,311.684326 229.466751,311.684326 
	C229.466751,302.787506 229.496017,294.211426 229.393600,285.636902 
	C229.387497,285.125610 228.326538,284.626953 226.895905,284.088013 
z"/>
<path fill="#479E96" opacity="1.000000" stroke="none" 
	d="
M123.845299,330.507568 
	C138.550049,329.807892 153.194473,329.472321 167.837555,329.085602 
	C195.298691,328.360352 222.760651,327.659393 250.219330,326.848907 
	C282.999847,325.881378 315.775513,324.746887 348.557159,323.822662 
	C357.824524,323.561401 367.105560,323.782776 376.701630,323.782776 
	C376.878571,325.462708 377.099976,327.564453 377.656799,329.933167 
	C377.796539,335.279480 377.471191,340.357788 377.431763,345.438354 
	C377.345734,356.516113 377.405182,367.594971 377.405182,380.006683 
	C371.990082,380.006683 366.229462,379.842804 360.481354,380.040863 
	C348.571167,380.451263 336.667572,381.053986 324.041260,381.436615 
	C316.372681,381.525360 309.424164,381.754028 302.475677,381.985046 
	C292.681458,382.310638 282.888367,382.673553 273.092896,382.955902 
	C259.967133,383.334229 246.840057,383.670868 233.712662,383.988586 
	C218.753372,384.350647 203.792740,384.658813 188.834076,385.043396 
	C187.901077,385.067352 186.979904,385.551910 186.053223,385.822144 
	C167.785843,386.233215 149.518539,386.647736 131.250961,387.050049 
	C129.430984,387.090118 127.609360,387.055420 125.108543,387.055420 
	C124.664825,368.220764 124.224602,349.534668 123.845299,330.507568 
M238.998962,368.976746 
	C239.104782,370.530457 239.210602,372.084198 239.318512,373.668579 
	C242.728333,373.668579 245.588379,373.668579 248.983643,373.668579 
	C248.983643,371.582336 248.983643,369.826813 249.305527,367.839661 
	C249.305527,367.839661 249.701752,367.856873 250.352280,368.279846 
	C253.016907,374.793518 254.425858,375.364716 262.931427,373.128937 
	C262.931427,371.426178 262.931427,369.622864 263.092712,367.024078 
	C261.815460,361.829865 261.359131,356.883392 262.709564,351.348633 
	C264.234680,345.097839 261.422516,340.349060 257.451904,340.089203 
	C251.086456,339.672638 244.673813,339.977570 237.684708,339.977570 
	C238.145233,349.973511 238.563202,359.045593 238.998962,368.976746 
M175.473404,350.726746 
	C177.422928,350.609650 179.372452,350.492584 181.281815,350.377899 
	C181.281815,347.308167 181.281815,344.763092 181.281815,342.660950 
	C172.977936,342.660950 165.101852,342.660950 157.340179,342.660950 
	C157.340179,351.164551 157.243729,358.987671 157.437256,366.803589 
	C157.468689,368.073029 158.788269,370.397827 159.506638,370.395569 
	C167.074677,370.371643 174.641525,369.973907 182.520782,369.667236 
	C182.269333,366.784058 182.074051,364.544861 181.808334,361.498199 
	C177.594910,361.498199 173.788101,361.498199 169.981293,361.498199 
	C170.010590,361.012512 170.039871,360.526855 170.069153,360.041168 
	C173.940399,359.809875 177.811646,359.578583 182.010620,359.327698 
	C181.898926,357.155396 181.809372,355.414032 181.688141,353.056458 
	C177.295349,353.056458 173.321899,353.056458 169.348450,353.056458 
	C169.297394,352.584961 169.246338,352.113434 169.195282,351.641937 
	C170.990311,351.347137 172.785324,351.052368 175.473404,350.726746 
M274.807922,367.173401 
	C280.057037,367.173401 285.306122,367.173401 290.923340,367.173401 
	C290.611450,363.778625 290.404938,361.530914 290.135559,358.598724 
	C285.837646,358.598724 281.983795,358.598724 278.129974,358.598724 
	C278.126160,358.107544 278.122314,357.616364 278.118500,357.125153 
	C281.968109,356.853882 285.817749,356.582611 290.134521,356.278412 
	C290.018677,354.201080 289.915131,352.344330 289.786560,350.038757 
	C285.238800,350.038757 281.284576,350.038757 277.330353,350.038757 
	C277.302338,349.499512 277.274353,348.960236 277.246338,348.420990 
	C281.357727,348.010162 285.469116,347.599335 289.468811,347.199646 
	C289.468811,344.323639 289.468811,341.767456 289.468811,339.702637 
	C281.171722,339.702637 273.296478,339.702637 265.877319,339.702637 
	C265.877319,349.334106 265.877319,358.238220 265.877319,367.560089 
	C268.980072,367.420929 271.431946,367.310944 274.807922,367.173401 
M314.276978,346.888824 
	C320.033905,345.164276 315.869904,341.249237 317.017120,337.834290 
	C310.520233,338.219177 304.841248,338.200684 299.278503,338.995636 
	C294.686310,339.651825 291.868134,344.410645 292.446869,349.142670 
	C293.017883,353.811676 295.791870,356.018677 301.092041,356.073181 
	C302.531158,356.087952 303.969116,356.212982 305.407623,356.287415 
	C305.411499,356.761719 305.415375,357.236023 305.419281,357.710327 
	C301.417175,358.033112 297.415100,358.355927 293.452911,358.675476 
	C293.452911,361.475128 293.452911,364.008026 293.452911,366.955688 
	C299.047363,366.667633 304.184967,366.464355 309.313354,366.122742 
	C315.061523,365.739868 317.792938,363.190002 317.792084,358.404266 
	C317.791077,352.835999 314.599762,349.544342 308.847076,349.134155 
	C307.250793,349.020294 305.661163,348.813416 304.068481,348.649231 
	C304.107849,348.059387 304.147247,347.469543 304.186646,346.879700 
	C307.238342,346.879700 310.290009,346.879700 314.276978,346.888824 
M325.248840,357.803131 
	C323.655365,357.904572 322.061890,358.006012 320.619995,358.097809 
	C320.619995,360.979492 320.619995,363.356628 320.619995,366.163422 
	C326.728699,365.856812 332.398743,365.863922 337.990631,365.206238 
	C343.162048,364.598022 345.091370,361.990692 344.934875,357.201447 
	C344.773987,352.278107 342.386200,349.471100 337.595581,348.680817 
	C335.497253,348.334656 333.377838,348.116394 331.268036,347.840057 
	C331.293365,347.341675 331.318695,346.843262 331.344025,346.344849 
	C335.673340,346.140778 340.002686,345.936676 344.576233,345.721069 
	C344.348633,342.848572 344.144989,340.278748 343.904572,337.244568 
	C337.945557,337.527924 332.295288,337.509827 326.720398,338.149078 
	C321.947540,338.696411 319.284485,343.248230 319.899811,348.698578 
	C320.409241,353.210938 322.971436,355.220612 328.213562,355.272491 
	C329.700409,355.287201 331.186249,355.406036 332.672546,355.477112 
	C332.696686,355.954559 332.720825,356.432007 332.744934,356.909454 
	C330.536682,357.203918 328.328430,357.498352 325.248840,357.803131 
M195.848267,366.538452 
	C196.014938,365.349243 196.181625,364.160004 196.424301,362.428467 
	C200.227005,370.092621 201.076981,370.459015 209.645599,368.031921 
	C205.389893,359.506592 205.474579,350.591187 208.605530,341.269104 
	C204.991196,341.269104 202.050049,340.546417 199.828461,341.500031 
	C198.082458,342.249512 197.225052,345.069031 196.099792,346.776459 
	C193.398361,340.644714 192.931900,340.463989 183.361237,342.720306 
	C187.737061,351.309753 187.414017,360.244751 184.155029,370.129944 
	C188.761353,368.783020 193.002640,372.114685 195.848267,366.538452 
M231.444931,341.471252 
	C224.706177,341.471252 217.967422,341.471252 211.402344,341.471252 
	C211.402344,350.666931 211.402344,359.703522 211.402344,368.629608 
	C215.297226,368.629608 218.561066,368.629608 221.824890,368.629608 
	C221.569046,368.163422 221.313202,367.697205 221.057358,367.231018 
	C222.736862,365.805725 224.206177,363.676178 226.138916,363.099304 
	C230.376709,361.834412 234.060196,360.215820 235.271606,355.620605 
	C236.598160,350.588593 236.618423,345.705017 231.444931,341.471252 
z"/>
<path fill="#407873" opacity="1.000000" stroke="none" 
	d="
M186.365662,385.989868 
	C186.979904,385.551910 187.901077,385.067352 188.834076,385.043396 
	C203.792740,384.658813 218.753372,384.350647 233.712662,383.988586 
	C246.840057,383.670868 259.967133,383.334229 273.092896,382.955902 
	C282.888367,382.673553 292.681458,382.310638 302.475677,381.985046 
	C309.424164,381.754028 316.372681,381.525360 323.640045,381.553650 
	C298.467010,395.798218 271.239777,402.206909 242.168625,400.454041 
	C222.753738,399.283356 204.196365,394.721191 186.365662,385.989868 
z"/>
<path fill="#F5EFD9" opacity="1.000000" stroke="none" 
	d="
M207.199417,212.076691 
	C200.723175,212.076691 194.246933,212.076691 187.387421,212.076691 
	C187.387421,199.104218 187.387421,186.403625 187.387421,173.351196 
	C200.311615,173.351196 213.352768,173.351196 227.159973,173.351196 
	C227.159973,185.838104 227.159973,198.394623 226.697937,211.455872 
	C219.890396,211.999313 213.544907,212.038010 207.199417,212.076691 
z"/>
<path fill="#4DA49B" opacity="1.000000" stroke="none" 
	d="
M282.003601,187.846497 
	C287.513733,181.594971 294.833252,182.920944 301.842041,183.302979 
	C302.600952,183.344360 303.821411,185.125214 303.873993,186.148239 
	C304.100342,190.550537 303.970703,194.971130 303.970703,199.786789 
	C301.149353,199.112320 298.972290,198.591858 295.735901,197.818161 
	C296.492706,200.031815 296.835358,201.516129 297.484894,202.851135 
	C300.454834,208.955460 303.652161,214.954529 306.430206,221.142944 
	C307.073029,222.574844 306.388763,224.602448 305.920654,226.880844 
	C299.859528,234.592392 294.192902,241.779037 288.213745,249.057220 
	C285.436951,250.757080 283.019897,253.662155 280.500549,253.753754 
	C268.288574,254.197723 256.049164,253.886673 243.872192,253.400940 
	C243.645599,249.343491 243.601730,245.691299 243.040833,242.120285 
	C241.618469,233.064560 238.291245,229.169037 229.187881,227.834793 
	C223.936600,227.065155 218.421249,228.097336 213.024750,228.318512 
	C213.667801,226.499420 214.310852,224.680313 215.461502,222.441986 
	C228.304672,222.068100 240.640244,222.113449 252.818741,222.477814 
	C251.972366,224.477081 251.130463,226.112244 250.618927,227.844940 
	C247.593613,238.092834 252.724014,245.044235 263.198730,244.972504 
	C264.524902,244.963425 265.850769,244.901733 267.622498,244.833527 
	C270.899689,244.795090 273.736237,244.892105 276.561249,244.753784 
	C280.158661,244.577667 282.844208,243.024033 284.158417,239.180695 
	C290.420532,233.263763 294.599945,226.726410 292.443268,217.953094 
	C290.749023,211.060944 288.756378,204.242157 287.257751,197.267487 
	C288.640045,195.375504 290.483002,193.564240 290.394409,191.852966 
	C290.334778,190.701416 287.615112,189.557053 285.944458,188.677353 
	C285.169159,188.269135 284.057983,188.498871 282.832764,188.277161 
	C282.378876,188.025452 282.191254,187.935974 282.003601,187.846497 
z"/>
<path fill="#FCE079" opacity="1.000000" stroke="none" 
	d="
M212.771118,228.521301 
	C218.421249,228.097336 223.936600,227.065155 229.187881,227.834793 
	C238.291245,229.169037 241.618469,233.064560 243.040833,242.120285 
	C243.601730,245.691299 243.645599,249.343491 243.455353,253.417419 
	C241.311310,253.931107 239.636841,253.986115 237.523041,253.973328 
	C234.152573,253.962585 231.221405,254.019623 227.800720,254.033279 
	C221.587555,253.996902 215.863922,254.003891 209.683151,253.958267 
	C206.478226,253.955856 203.730438,254.006058 200.982651,254.056274 
	C198.871216,253.938980 196.759766,253.821686 194.016708,253.669312 
	C194.016708,252.039124 194.016708,250.504837 194.443024,248.501099 
	C197.082870,247.890335 199.296387,247.749023 201.509918,247.607697 
	C201.488037,247.177505 201.466156,246.747299 201.444275,246.317108 
	C199.286209,246.173569 197.128143,246.030045 194.970078,245.886520 
	C195.367798,244.838135 195.765503,243.789764 196.629654,242.376221 
	C201.540421,242.011078 205.984772,242.011078 210.429108,242.011078 
	C210.429459,241.264801 210.429810,240.518509 210.430145,239.772232 
	C206.438034,239.772232 202.445908,239.772232 198.453766,239.772217 
	C203.141678,236.089508 207.829575,232.406799 212.771118,228.521301 
z"/>
<path fill="#FCDF78" opacity="1.000000" stroke="none" 
	d="
M281.606812,187.875793 
	C282.191254,187.935974 282.378876,188.025452 282.801636,188.655548 
	C282.690308,191.514069 282.343842,193.831970 281.544800,196.204041 
	C272.353058,195.783798 263.008453,196.397690 260.471008,184.764694 
	C260.439941,184.622284 259.912048,184.588257 259.222137,184.391037 
	C257.794861,188.576233 256.364044,192.771896 254.495514,196.984268 
	C248.736679,196.609741 243.415558,196.218506 238.094421,195.827271 
	C238.866196,186.543365 241.651733,177.899170 247.250229,170.446365 
	C252.090469,164.002975 259.014893,164.215454 263.914368,170.690430 
	C265.599670,172.917633 267.171967,175.417664 268.034332,178.043213 
	C270.170929,184.548309 274.394379,187.854218 281.606812,187.875793 
z"/>
<path fill="#4DA39B" opacity="1.000000" stroke="none" 
	d="
M237.922058,196.201965 
	C243.415558,196.218506 248.736679,196.609741 254.521210,197.360382 
	C257.138855,199.453156 259.043671,201.857742 261.502502,202.771423 
	C265.793060,204.365784 270.624420,204.557098 274.836365,206.290710 
	C277.252686,207.285278 280.799866,210.428024 280.557770,212.139679 
	C279.500946,219.610657 277.242462,226.911636 275.054382,234.267212 
	C272.932922,234.245026 271.177307,234.229935 269.044891,234.136505 
	C268.661133,231.219269 268.522797,228.373352 268.673584,225.542847 
	C269.024841,218.950409 267.249146,211.908142 258.543396,212.027466 
	C252.694046,211.945740 247.312714,211.883514 241.931381,211.821289 
	C237.740448,207.506989 235.919907,202.542480 237.922058,196.201965 
z"/>
<path fill="#FCE078" opacity="1.000000" stroke="none" 
	d="
M288.526306,248.965668 
	C294.192902,241.779037 299.859528,234.592392 305.773865,227.179321 
	C314.541656,226.155060 322.509369,226.986130 328.572968,234.664963 
	C326.658142,235.931351 324.902405,237.092545 322.589783,238.598206 
	C318.790710,240.886841 315.548492,242.831024 311.936157,244.865036 
	C309.360809,246.311386 307.155579,247.667908 304.692810,249.089020 
	C304.280243,249.447021 304.125153,249.740433 303.976990,250.013550 
	C303.983887,249.993286 304.016113,249.965240 303.657135,249.963547 
	C300.521545,251.629333 297.744934,253.296799 294.619202,255.037674 
	C293.003967,255.756958 291.737854,256.402863 289.832367,257.374939 
	C289.347534,254.253235 288.936920,251.609451 288.526306,248.965668 
z"/>
<path fill="#4FA59C" opacity="1.000000" stroke="none" 
	d="
M312.306274,244.775208 
	C315.548492,242.831024 318.790710,240.886841 322.370117,238.871429 
	C332.421722,242.801453 333.926300,259.421051 326.232910,266.570007 
	C316.793793,273.809937 309.657898,273.895966 300.116150,266.715881 
	C298.087280,262.493439 296.527802,258.728851 294.968323,254.964279 
	C297.744934,253.296799 300.521545,251.629333 303.762451,250.382141 
	C304.201141,252.298096 303.958557,253.828262 304.190002,255.283051 
	C304.921478,259.880981 309.402527,263.352844 313.843628,262.940826 
	C318.221069,262.534698 321.863098,258.718506 322.089996,254.300156 
	C322.372803,248.793076 319.053101,245.561172 312.306274,244.775208 
z"/>
<path fill="#FDE078" opacity="1.000000" stroke="none" 
	d="
M241.476212,211.886993 
	C247.312714,211.883514 252.694046,211.945740 258.577942,212.479401 
	C259.080475,215.882004 259.080475,218.813156 259.080475,221.797409 
	C256.600769,221.944199 254.788300,222.051483 252.975830,222.158783 
	C240.640244,222.113449 228.304672,222.068100 215.510956,222.083069 
	C212.658875,222.030441 210.264923,221.917480 207.279114,221.776611 
	C207.279114,218.698898 207.279114,215.832672 207.239258,212.521576 
	C213.544907,212.038010 219.890396,211.999313 226.715424,211.915894 
	C231.803665,211.898361 236.412354,211.925522 241.476212,211.886993 
z"/>
<path fill="#4FA59C" opacity="1.000000" stroke="none" 
	d="
M228.290237,254.076660 
	C231.221405,254.019623 234.152573,253.962585 237.475616,254.345764 
	C236.225372,258.811157 234.583252,262.836334 232.941132,266.861511 
	C224.234131,272.930756 215.477982,274.384033 206.308289,266.995667 
	C204.327682,262.847656 202.668015,258.845581 200.995499,254.449890 
	C203.730438,254.006058 206.478226,253.955856 209.717529,254.311066 
	C212.244873,260.511078 215.482590,263.276978 219.848724,262.951355 
	C224.225388,262.624969 227.310059,259.381958 228.290237,254.076660 
z"/>
<path fill="#EEEBD5" opacity="1.000000" stroke="none" 
	d="
M271.063721,148.899796 
	C271.342773,156.769562 268.171326,161.457581 261.856415,162.510010 
	C255.943222,163.495483 251.113297,159.841873 249.455200,152.378082 
	C256.932617,150.925720 263.998169,149.912750 271.063721,148.899796 
z"/>
<path fill="#52A59D" opacity="1.000000" stroke="none" 
	d="
M271.321960,148.643295 
	C263.998169,149.912750 256.932617,150.925720 249.469711,152.010071 
	C248.319305,147.151123 250.444687,142.849182 254.698792,141.585419 
	C258.876190,140.344467 264.303375,138.571976 268.026398,143.176529 
	C270.554260,146.302917 273.021484,148.424759 277.603516,145.440857 
	C277.517731,146.037781 277.431946,146.634720 277.346161,147.231644 
	C275.424164,147.616699 273.502167,148.001740 271.321960,148.643295 
z"/>
<path fill="#DEE0CC" opacity="1.000000" stroke="none" 
	d="
M178.979950,233.926117 
	C166.668945,233.926086 154.854675,233.926086 143.040405,233.926086 
	C145.836319,230.839340 186.690765,230.464005 191.586624,233.580429 
	C187.549973,233.695663 183.513321,233.810898 178.979950,233.926117 
z"/>
<path fill="#DEE0CC" opacity="1.000000" stroke="none" 
	d="
M168.987885,203.926102 
	C157.751724,203.926086 147.012512,203.926086 136.273315,203.926086 
	C136.284302,203.374542 136.295288,202.822998 136.306274,202.271454 
	C151.666641,202.271454 167.026993,202.271454 182.387360,202.271454 
	C182.435730,202.710205 182.484100,203.148956 182.532471,203.587708 
	C178.183258,203.700516 173.834045,203.813324 168.987885,203.926102 
z"/>
<path fill="#F1EDD8" opacity="1.000000" stroke="none" 
	d="
M194.503082,245.931244 
	C197.128143,246.030045 199.286209,246.173569 201.444275,246.317108 
	C201.466156,246.747299 201.488037,247.177505 201.509918,247.607697 
	C199.296387,247.749023 197.082870,247.890335 194.437988,248.069641 
	C183.212540,248.107605 172.418442,248.107605 161.624344,248.107605 
	C161.603409,247.430664 161.582474,246.753723 161.561523,246.076782 
	C172.386383,246.043167 183.211227,246.009567 194.503082,245.931244 
z"/>
<path fill="#F5EFD9" opacity="1.000000" stroke="none" 
	d="
M198.036560,239.854202 
	C202.445908,239.772232 206.438034,239.772232 210.430145,239.772232 
	C210.429810,240.518509 210.429459,241.264801 210.429108,242.011078 
	C205.984772,242.011078 201.540421,242.011078 196.651947,242.038422 
	C189.154922,242.065781 182.102036,242.065781 175.049164,242.065781 
	C175.038651,241.355911 175.028152,240.646042 175.017654,239.936172 
	C182.551544,239.936172 190.085449,239.936172 198.036560,239.854202 
z"/>
<path fill="#DEE0CC" opacity="1.000000" stroke="none" 
	d="
M199.540131,225.202225 
	C189.160919,225.212936 179.234299,225.212936 169.307663,225.212936 
	C169.249008,224.866425 169.190353,224.519928 169.131699,224.173416 
	C169.895813,223.813736 170.657333,223.147583 171.424438,223.141098 
	C180.582260,223.063721 189.741302,223.046753 198.898773,223.137848 
	C199.811783,223.146927 200.716705,223.969788 201.625381,224.414963 
	C201.081146,224.673813 200.536926,224.932663 199.540131,225.202225 
z"/>
<path fill="#DEE0CC" opacity="1.000000" stroke="none" 
	d="
M153.362732,192.786148 
	C162.764313,192.785843 171.710770,192.785843 181.444946,192.785843 
	C178.016327,195.323227 154.399979,195.721603 148.607300,193.507278 
	C150.623337,193.169342 151.765472,192.977890 153.362732,192.786148 
z"/>
<path fill="#3E7671" opacity="1.000000" stroke="none" 
	d="
M233.414093,266.915619 
	C234.583252,262.836334 236.225372,258.811157 237.914917,254.413544 
	C239.636841,253.986115 241.311310,253.931107 243.402618,253.859619 
	C256.049164,253.886673 268.288574,254.197723 280.500549,253.753754 
	C283.019897,253.662155 285.436951,250.757080 288.213745,249.057220 
	C288.936920,251.609451 289.347534,254.253235 289.832367,257.374939 
	C291.737854,256.402863 293.003967,255.756958 294.619202,255.037674 
	C296.527802,258.728851 298.087280,262.493439 299.798340,266.557190 
	C277.928955,266.894135 255.908005,266.931915 233.414093,266.915619 
z"/>
<path fill="#437971" opacity="1.000000" stroke="none" 
	d="
M301.718750,311.881104 
	C300.271851,309.976105 299.235382,308.156769 297.668854,305.406982 
	C297.301025,307.949249 297.061188,309.606964 296.767212,311.638855 
	C293.470551,311.638855 290.100952,311.638855 286.421387,311.638855 
	C286.421387,302.622803 286.421387,293.714905 286.421387,284.140198 
	C292.771240,284.140198 299.050751,283.794037 305.270172,284.256226 
	C309.762970,284.590057 312.071808,290.295441 310.848572,296.973816 
	C310.410950,299.363037 309.015320,301.682312 309.043030,304.021820 
	C309.071198,306.399780 310.314972,308.763336 311.276733,311.966797 
	C307.906433,311.966797 305.017822,311.966797 301.718750,311.881104 
z"/>
<path fill="#457A71" opacity="1.000000" stroke="none" 
	d="
M151.864899,311.286011 
	C146.245926,311.679993 141.020004,311.938446 135.420471,312.215363 
	C135.420471,302.577148 135.420471,293.696228 135.420471,284.450134 
	C140.713882,284.450134 146.007889,283.931061 151.149445,284.594116 
	C156.438568,285.276215 159.328552,289.631287 159.894455,295.820892 
	C160.709061,304.730865 159.068909,308.023315 151.864899,311.286011 
z"/>
<path fill="#467B71" opacity="1.000000" stroke="none" 
	d="
M185.493866,304.329712 
	C186.370605,306.723969 186.812881,309.028778 187.331192,311.729858 
	C178.608017,311.729858 170.689651,311.729858 162.415100,311.729858 
	C162.415100,302.743805 162.415100,293.838501 162.415100,284.500488 
	C170.388321,284.500488 178.264679,284.500488 186.488739,284.500488 
	C186.488739,287.004059 186.488739,289.557861 186.488739,292.465912 
	C182.380432,292.703491 178.350647,292.936523 174.320862,293.169586 
	C174.263535,293.787720 174.206192,294.405884 174.148865,295.024048 
	C178.114349,295.403870 182.079849,295.783661 186.476532,296.204773 
	C186.476532,297.765900 186.476532,299.463593 186.476532,301.511841 
	C182.453232,301.690308 178.450012,301.867859 174.446777,302.045441 
	C174.442902,302.777039 174.439011,303.508636 174.435135,304.240234 
	C177.976547,304.240234 181.517975,304.240234 185.493866,304.329712 
z"/>
<path fill="#437971" opacity="1.000000" stroke="none" 
	d="
M366.744324,302.341431 
	C366.754425,305.598633 366.754425,308.401978 366.754425,312.154968 
	C361.070648,311.901550 355.609924,312.177338 350.348145,311.282745 
	C344.675537,310.318298 342.104553,306.440369 341.910889,300.586700 
	C341.861389,299.092133 341.871185,297.594360 341.896332,296.098785 
	C342.038116,287.665894 345.272980,284.360931 353.637787,284.100067 
	C354.800476,284.063812 355.964905,284.081879 357.128540,284.080200 
	C367.852509,284.064606 367.852509,284.064972 366.282471,295.593353 
	C362.132568,295.913025 357.882660,296.240417 353.632751,296.567780 
	C353.588928,297.325836 353.545105,298.083893 353.501282,298.841949 
	C355.796936,299.244019 358.113403,299.555176 360.382233,300.074493 
	C362.525604,300.565063 364.618866,301.274414 366.744324,302.341431 
z"/>
<path fill="#437971" opacity="1.000000" stroke="none" 
	d="
M235.379486,309.514801 
	C234.230316,301.022095 233.193604,292.960327 232.102463,284.475159 
	C235.725876,284.475159 239.076614,284.475159 242.567978,284.475159 
	C243.088699,287.524475 243.585129,290.431580 244.081573,293.338715 
	C244.291504,293.362427 244.501434,293.386139 244.711365,293.409851 
	C245.265198,290.533325 245.819031,287.656799 246.440201,284.430542 
	C249.757584,284.430542 253.144730,284.430542 257.049500,284.430542 
	C255.865219,293.493103 254.710709,302.327759 253.464401,311.864960 
	C247.972488,311.864960 242.405029,311.910522 236.841583,311.781860 
	C236.377792,311.771118 235.941177,310.585449 235.379486,309.514801 
z"/>
<path fill="#427871" opacity="1.000000" stroke="none" 
	d="
M332.452942,284.135956 
	C333.705719,286.924042 334.656982,289.640533 335.292877,292.428925 
	C336.724670,298.707245 338.000244,305.021179 339.420166,311.700623 
	C335.390930,311.700623 331.813263,311.700623 327.964264,311.700623 
	C327.458923,309.604767 326.939240,307.449524 326.419586,305.294250 
	C326.049042,305.239929 325.678497,305.185577 325.307983,305.131256 
	C324.741364,307.158539 324.174774,309.185852 323.485931,311.650543 
	C320.475250,311.650543 317.114532,311.650543 313.334747,311.650543 
	C314.925018,302.568695 316.487823,293.643677 318.159515,284.096985 
	C322.844513,284.096985 327.426422,284.096985 332.452942,284.135956 
z"/>
<path fill="#457A71" opacity="1.000000" stroke="none" 
	d="
M214.180679,306.034637 
	C214.180862,308.136688 214.180862,309.764008 214.180862,311.700897 
	C205.896530,311.700897 197.999939,311.700897 189.706085,311.700897 
	C189.706085,302.706696 189.706085,293.695984 189.706085,284.377625 
	C193.950348,284.377625 197.993561,284.377625 202.853012,284.377625 
	C202.853012,287.843140 202.861710,291.111145 202.851288,294.379120 
	C202.825592,302.441528 201.751541,302.130005 210.144455,301.845306 
	C212.996414,301.748596 214.702225,302.283081 214.180679,306.034637 
z"/>
<path fill="#427871" opacity="1.000000" stroke="none" 
	d="
M272.979767,284.082062 
	C276.764587,284.082092 280.056061,284.082092 283.642578,284.082092 
	C283.642578,287.856903 283.642578,291.112091 283.642578,294.783112 
	C278.123749,294.385529 277.782043,297.911987 278.076630,302.121063 
	C278.294189,305.229065 278.119354,308.364532 278.119354,311.737427 
	C273.666687,311.737427 269.735352,311.737427 265.142212,311.737427 
	C265.142212,308.287781 264.925873,304.845642 265.197418,301.442444 
	C265.530853,297.263092 264.612915,294.465363 259.364075,295.024780 
	C259.364075,291.480591 259.364075,288.200989 259.364075,284.082031 
	C263.645721,284.082031 268.066101,284.082031 272.979767,284.082062 
z"/>
<path fill="#427871" opacity="1.000000" stroke="none" 
	d="
M227.326172,284.105225 
	C228.326538,284.626953 229.387497,285.125610 229.393600,285.636902 
	C229.496017,294.211426 229.466751,302.787506 229.466751,311.684326 
	C225.444855,311.684326 221.414810,311.684326 217.087341,311.684326 
	C217.087341,302.586090 217.087341,293.699615 217.087341,284.088013 
	C220.393509,284.088013 223.644714,284.088013 227.326172,284.105225 
z"/>
<path fill="#FAFCFC" opacity="1.000000" stroke="none" 
	d="
M249.701752,367.856873 
	C249.701752,367.856873 249.305527,367.839661 248.691925,367.924988 
	C245.045944,368.046112 242.013550,368.081909 238.981171,368.117676 
	C238.563202,359.045593 238.145233,349.973511 237.684708,339.977570 
	C244.673813,339.977570 251.086456,339.672638 257.451904,340.089203 
	C261.422516,340.349060 264.234680,345.097839 262.709564,351.348633 
	C261.359131,356.883392 261.815460,361.829865 262.568604,367.389282 
	C259.585083,367.781158 256.811615,368.524780 254.757874,367.625214 
	C252.848572,366.788879 251.706482,364.200958 249.701752,361.739868 
	C249.701752,364.293427 249.701752,366.075165 249.701752,367.856873 
z"/>
<path fill="#F5FAFA" opacity="1.000000" stroke="none" 
	d="
M175.026886,350.742157 
	C172.785324,351.052368 170.990311,351.347137 169.195282,351.641937 
	C169.246338,352.113434 169.297394,352.584961 169.348450,353.056458 
	C173.321899,353.056458 177.295349,353.056458 181.688141,353.056458 
	C181.809372,355.414032 181.898926,357.155396 182.010620,359.327698 
	C177.811646,359.578583 173.940399,359.809875 170.069153,360.041168 
	C170.039871,360.526855 170.010590,361.012512 169.981293,361.498199 
	C173.788101,361.498199 177.594910,361.498199 181.808334,361.498199 
	C182.074051,364.544861 182.269333,366.784058 182.520782,369.667236 
	C174.641525,369.973907 167.074677,370.371643 159.506638,370.395569 
	C158.788269,370.397827 157.468689,368.073029 157.437256,366.803589 
	C157.243729,358.987671 157.340179,351.164551 157.340179,342.660950 
	C165.101852,342.660950 172.977936,342.660950 181.281815,342.660950 
	C181.281815,344.763092 181.281815,347.308167 181.281815,350.377899 
	C179.372452,350.492584 177.422928,350.609650 175.026886,350.742157 
z"/>
<path fill="#F8FBFB" opacity="1.000000" stroke="none" 
	d="
M274.345886,367.187195 
	C271.431946,367.310944 268.980072,367.420929 265.877319,367.560089 
	C265.877319,358.238220 265.877319,349.334106 265.877319,339.702637 
	C273.296478,339.702637 281.171722,339.702637 289.468811,339.702637 
	C289.468811,341.767456 289.468811,344.323639 289.468811,347.199646 
	C285.469116,347.599335 281.357727,348.010162 277.246338,348.420990 
	C277.274353,348.960236 277.302338,349.499512 277.330353,350.038757 
	C281.284576,350.038757 285.238800,350.038757 289.786560,350.038757 
	C289.915131,352.344330 290.018677,354.201080 290.134521,356.278412 
	C285.817749,356.582611 281.968109,356.853882 278.118500,357.125153 
	C278.122314,357.616364 278.126160,358.107544 278.129974,358.598724 
	C281.983795,358.598724 285.837646,358.598724 290.135559,358.598724 
	C290.404938,361.530914 290.611450,363.778625 290.923340,367.173401 
	C285.306122,367.173401 280.057037,367.173401 274.345886,367.187195 
z"/>
<path fill="#F7FBFA" opacity="1.000000" stroke="none" 
	d="
M313.809326,346.884277 
	C310.290009,346.879700 307.238342,346.879700 304.186646,346.879700 
	C304.147247,347.469543 304.107849,348.059387 304.068481,348.649231 
	C305.661163,348.813416 307.250793,349.020294 308.847076,349.134155 
	C314.599762,349.544342 317.791077,352.835999 317.792084,358.404266 
	C317.792938,363.190002 315.061523,365.739868 309.313354,366.122742 
	C304.184967,366.464355 299.047363,366.667633 293.452911,366.955688 
	C293.452911,364.008026 293.452911,361.475128 293.452911,358.675476 
	C297.415100,358.355927 301.417175,358.033112 305.419281,357.710327 
	C305.415375,357.236023 305.411499,356.761719 305.407623,356.287415 
	C303.969116,356.212982 302.531158,356.087952 301.092041,356.073181 
	C295.791870,356.018677 293.017883,353.811676 292.446869,349.142670 
	C291.868134,344.410645 294.686310,339.651825 299.278503,338.995636 
	C304.841248,338.200684 310.520233,338.219177 317.017120,337.834290 
	C315.869904,341.249237 320.033905,345.164276 313.809326,346.884277 
z"/>
<path fill="#F9FCFB" opacity="1.000000" stroke="none" 
	d="
M325.684509,357.797974 
	C328.328430,357.498352 330.536682,357.203918 332.744934,356.909454 
	C332.720825,356.432007 332.696686,355.954559 332.672546,355.477112 
	C331.186249,355.406036 329.700409,355.287201 328.213562,355.272491 
	C322.971436,355.220612 320.409241,353.210938 319.899811,348.698578 
	C319.284485,343.248230 321.947540,338.696411 326.720398,338.149078 
	C332.295288,337.509827 337.945557,337.527924 343.904572,337.244568 
	C344.144989,340.278748 344.348633,342.848572 344.576233,345.721069 
	C340.002686,345.936676 335.673340,346.140778 331.344025,346.344849 
	C331.318695,346.843262 331.293365,347.341675 331.268036,347.840057 
	C333.377838,348.116394 335.497253,348.334656 337.595581,348.680817 
	C342.386200,349.471100 344.773987,352.278107 344.934875,357.201447 
	C345.091370,361.990692 343.162048,364.598022 337.990631,365.206238 
	C332.398743,365.863922 326.728699,365.856812 320.619995,366.163422 
	C320.619995,363.356628 320.619995,360.979492 320.619995,358.097809 
	C322.061890,358.006012 323.655365,357.904572 325.684509,357.797974 
z"/>
<path fill="#F9FCFB" opacity="1.000000" stroke="none" 
	d="
M195.801941,366.928894 
	C193.002640,372.114685 188.761353,368.783020 184.155029,370.129944 
	C187.414017,360.244751 187.737061,351.309753 183.361237,342.720306 
	C192.931900,340.463989 193.398361,340.644714 196.099792,346.776459 
	C197.225052,345.069031 198.082458,342.249512 199.828461,341.500031 
	C202.050049,340.546417 204.991196,341.269104 208.605530,341.269104 
	C205.474579,350.591187 205.389893,359.506592 209.645599,368.031921 
	C201.076981,370.459015 200.227005,370.092621 196.424301,362.428467 
	C196.181625,364.160004 196.014938,365.349243 195.801941,366.928894 
z"/>
<path fill="#FBFDFD" opacity="1.000000" stroke="none" 
	d="
M231.793793,341.699677 
	C236.618423,345.705017 236.598160,350.588593 235.271606,355.620605 
	C234.060196,360.215820 230.376709,361.834412 226.138916,363.099304 
	C224.206177,363.676178 222.736862,365.805725 221.057358,367.231018 
	C221.313202,367.697205 221.569046,368.163422 221.824890,368.629608 
	C218.561066,368.629608 215.297226,368.629608 211.402344,368.629608 
	C211.402344,359.703522 211.402344,350.666931 211.402344,341.471252 
	C217.967422,341.471252 224.706177,341.471252 231.793793,341.699677 
z"/>
<path fill="#407873" opacity="1.000000" stroke="none" 
	d="
M250.027008,368.068359 
	C249.701752,366.075165 249.701752,364.293427 249.701752,361.739868 
	C251.706482,364.200958 252.848572,366.788879 254.757874,367.625214 
	C256.811615,368.524780 259.585083,367.781158 262.487976,367.787018 
	C262.931427,369.622864 262.931427,371.426178 262.931427,373.128937 
	C254.425858,375.364716 253.016907,374.793518 250.027008,368.068359 
z"/>
<path fill="#3E7671" opacity="1.000000" stroke="none" 
	d="
M238.990067,368.547211 
	C242.013550,368.081909 245.045944,368.046112 248.530975,368.040833 
	C248.983643,369.826813 248.983643,371.582336 248.983643,373.668579 
	C245.588379,373.668579 242.728333,373.668579 239.318512,373.668579 
	C239.210602,372.084198 239.104782,370.530457 238.990067,368.547211 
z"/>
<path fill="#407872" opacity="1.000000" stroke="none" 
	d="
M275.420227,234.274323 
	C277.242462,226.911636 279.500946,219.610657 280.557770,212.139679 
	C280.799866,210.428024 277.252686,207.285278 274.836365,206.290710 
	C270.624420,204.557098 265.793060,204.365784 261.502502,202.771423 
	C259.043671,201.857742 257.138855,199.453156 254.958893,197.343658 
	C256.364044,192.771896 257.794861,188.576233 259.222137,184.391037 
	C259.912048,184.588257 260.439941,184.622284 260.471008,184.764694 
	C263.008453,196.397690 272.353058,195.783798 281.824097,196.434906 
	C284.002747,196.871323 285.449554,197.131042 286.896332,197.390762 
	C288.756378,204.242157 290.749023,211.060944 292.443268,217.953094 
	C294.599945,226.726410 290.420532,233.263763 283.749237,239.109528 
	C279.774445,238.585236 275.425140,239.811340 275.420227,234.274323 
z"/>
<path fill="#407872" opacity="1.000000" stroke="none" 
	d="
M252.818741,222.477814 
	C254.788300,222.051483 256.600769,221.944199 259.080475,221.797409 
	C259.080475,218.813156 259.080475,215.882004 259.045929,212.498917 
	C267.249146,211.908142 269.024841,218.950409 268.673584,225.542847 
	C268.522797,228.373352 268.661133,231.219269 268.912323,234.495636 
	C268.496613,238.243530 267.836700,241.553986 267.176758,244.864426 
	C265.850769,244.901733 264.524902,244.963425 263.198730,244.972504 
	C252.724014,245.044235 247.593613,238.092834 250.618927,227.844940 
	C251.130463,226.112244 251.972366,224.477081 252.818741,222.477814 
z"/>
<path fill="#EFDA79" opacity="1.000000" stroke="none" 
	d="
M267.622528,244.833527 
	C267.836700,241.553986 268.496613,238.243530 269.289124,234.573959 
	C271.177307,234.229935 272.932922,234.245026 275.054382,234.267212 
	C275.425140,239.811340 279.774445,238.585236 283.393372,239.204315 
	C282.844208,243.024033 280.158661,244.577667 276.561249,244.753784 
	C273.736237,244.892105 270.899689,244.795090 267.622528,244.833527 
z"/>
<path fill="#EEEBD5" opacity="1.000000" stroke="none" 
	d="
M287.257751,197.267487 
	C285.449554,197.131042 284.002747,196.871323 282.276672,196.380737 
	C282.343842,193.831970 282.690308,191.514069 283.067932,188.817780 
	C284.057983,188.498871 285.169159,188.269135 285.944458,188.677353 
	C287.615112,189.557053 290.334778,190.701416 290.394409,191.852966 
	C290.483002,193.564240 288.640045,195.375504 287.257751,197.267487 
z"/>
<path fill="#F1EDD8" opacity="1.000000" stroke="none" 
	d="
M227.800720,254.033264 
	C227.310059,259.381958 224.225388,262.624969 219.848724,262.951355 
	C215.482590,263.276978 212.244873,260.511078 210.174667,254.363678 
	C215.863922,254.003891 221.587555,253.996902 227.800720,254.033264 
z"/>
<path fill="#F1EDD8" opacity="1.000000" stroke="none" 
	d="
M311.936157,244.865036 
	C319.053101,245.561172 322.372803,248.793076 322.089996,254.300156 
	C321.863098,258.718506 318.221069,262.534698 313.843628,262.940826 
	C309.402527,263.352844 304.921478,259.880981 304.190002,255.283051 
	C303.958557,253.828262 304.201141,252.298096 304.121460,250.383820 
	C304.016113,249.965240 303.983887,249.993286 304.260193,250.014557 
	C304.674438,249.698669 304.812408,249.361542 304.950348,249.024414 
	C307.155579,247.667908 309.360809,246.311386 311.936157,244.865036 
z"/>
<path fill="#4FA59C" opacity="1.000000" stroke="none" 
	d="
M304.692810,249.089020 
	C304.812408,249.361542 304.674438,249.698669 304.253296,250.034821 
	C304.125153,249.740433 304.280243,249.447021 304.692810,249.089020 
z"/>
</svg>